<svg xmlns="http://www.w3.org/2000/svg" viewBox="0 0 720 280" role="img" aria-labelledby="lat-title lat-desc" font-family="Inter, system-ui, sans-serif">
  <title id="lat-title">Startup latency p50 / p95 / p99 — backend and frontend</title>
  <desc id="lat-desc">Grouped horizontal bar chart of cold-launch startup latency in seconds for backend and frontend services across p50, p95, and p99 percentiles. Backend: p50 1.6s, p95 3.4s, p99 6.1s. Frontend: p50 2.9s, p95 5.2s, p99 8.4s. Dashed reference line at 5 seconds marks the comfort threshold.</desc>
  <rect x="0" y="0" width="720" height="280" fill="#FFFFFF"/>
  <text x="24" y="28" font-size="14" font-weight="600" fill="#1A1A1A">Startup latency p50 / p95 / p99</text>
  <text x="24" y="46" font-size="11" fill="#5C5C5C">Time from launch button to first /healthz 200. Lower is better.</text>
  <!-- plot area: x 140..680 (540 wide); 0..10s -->
  <!-- gridlines every 2s -->
  <g stroke="#E5E1DA" stroke-width="1">
    <line x1="140" y1="70" x2="140" y2="240"/>
    <line x1="248" y1="70" x2="248" y2="240"/>
    <line x1="356" y1="70" x2="356" y2="240"/>
    <line x1="464" y1="70" x2="464" y2="240"/>
    <line x1="572" y1="70" x2="572" y2="240"/>
    <line x1="680" y1="70" x2="680" y2="240"/>
  </g>
  <!-- 5s reference -->
  <line x1="410" y1="70" x2="410" y2="240" stroke="#B7791F" stroke-width="1" stroke-dasharray="3 3"/>
  <text x="414" y="80" font-size="10" fill="#B7791F">5s comfort line</text>
  <!-- x labels -->
  <g font-size="10" fill="#8A8A8A" text-anchor="middle">
    <text x="140" y="256">0s</text>
    <text x="248" y="256">2s</text>
    <text x="356" y="256">4s</text>
    <text x="464" y="256">6s</text>
    <text x="572" y="256">8s</text>
    <text x="680" y="256">10s</text>
  </g>
  <!-- row labels -->
  <g font-size="11" fill="#1A1A1A" text-anchor="end">
    <text x="134" y="92">backend p50</text>
    <text x="134" y="112">backend p95</text>
    <text x="134" y="132">backend p99</text>
    <text x="134" y="162">frontend p50</text>
    <text x="134" y="182">frontend p95</text>
    <text x="134" y="202">frontend p99</text>
  </g>
  <!-- bars: scale 54px per second -->
  <!-- backend: p50 1.6 → 86.4 ; p95 3.4 → 183.6 ; p99 6.1 → 329.4 -->
  <rect x="140" y="84" width="86.4"  height="12" fill="#2F7D54"/>
  <rect x="140" y="104" width="183.6" height="12" fill="#2F7D54"/>
  <rect x="140" y="124" width="329.4" height="12" fill="#B23B3B"/>
  <!-- frontend: p50 2.9 → 156.6 ; p95 5.2 → 280.8 ; p99 8.4 → 453.6 -->
  <rect x="140" y="154" width="156.6" height="12" fill="#2F7D54"/>
  <rect x="140" y="174" width="280.8" height="12" fill="#B7791F"/>
  <rect x="140" y="194" width="453.6" height="12" fill="#B23B3B"/>
  <!-- value labels -->
  <g font-size="10" fill="#1A1A1A">
    <text x="230" y="94">1.6s</text>
    <text x="328" y="114">3.4s</text>
    <text x="474" y="134">6.1s</text>
    <text x="300" y="164">2.9s</text>
    <text x="425" y="184">5.2s</text>
    <text x="599" y="204">8.4s</text>
  </g>
  <!-- legend -->
  <g font-size="11">
    <rect x="140" y="60" width="12" height="8" fill="#2F7D54"/>
    <text x="158" y="68" fill="#5C5C5C">≤ comfort</text>
    <rect x="240" y="60" width="12" height="8" fill="#B7791F"/>
    <text x="258" y="68" fill="#5C5C5C">approaching</text>
    <rect x="350" y="60" width="12" height="8" fill="#B23B3B"/>
    <text x="368" y="68" fill="#5C5C5C">over budget</text>
  </g>
</svg>
